<svg xmlns="http://www.w3.org/2000/svg" viewBox="0 0 64 64" fill="none">
  <g fill="#dc2626">
    <circle cx="23" cy="18" r="9" />
    <circle cx="17" cy="29" r="9" />
    <circle cx="25" cy="39" r="10" />
    <circle cx="41" cy="18" r="9" />
    <circle cx="47" cy="29" r="9" />
    <circle cx="39" cy="39" r="10" />
    <rect x="23" y="14" width="18" height="30" rx="9" />
    <rect x="29" y="44" width="6" height="12" rx="3" />
  </g>
  <g stroke="#991b1b" stroke-linecap="round" stroke-width="3">
    <path d="M32 14v30" />
    <path d="M21 22c4 0 7 3 7 7" />
    <path d="M20 32c5 0 8 3 8 8" />
    <path d="M43 22c-4 0-7 3-7 7" />
    <path d="M44 32c-5 0-8 3-8 8" />
  </g>
</svg>
